# Blender v3.0.0 OBJ File: 'PunkRoad.blend'
# www.blender.org
mtllib PunkRoad.mtl
o Cube.001_Cube.002
v -4.000000 -0.170545 15.000000
v -4.000000 0.170549 15.000000
v -4.000000 -0.170549 -15.000000
v -4.000000 0.170545 -15.000000
v 4.000000 -0.170545 15.000000
v 4.000000 0.170549 15.000000
v 4.000000 -0.170549 -15.000000
v 4.000000 0.170545 -15.000000
v 3.757143 -0.170549 -15.000000
v 1.387109 -0.170549 -15.000000
v 1.190602 -0.170549 -15.000000
v -1.190602 -0.170549 -15.000000
v -1.387109 -0.170549 -15.000000
v -3.757143 -0.170549 -15.000000
v -3.757143 0.170545 -15.000000
v -1.387109 0.170545 -15.000000
v -1.190602 0.170545 -15.000000
v 1.190602 0.170545 -15.000000
v 1.387109 0.170545 -15.000000
v 3.757143 0.170545 -15.000000
v -3.757143 -0.170545 15.000000
v -1.387109 -0.170545 15.000000
v -1.190602 -0.170545 15.000000
v 1.190602 -0.170545 15.000000
v 1.387109 -0.170545 15.000000
v 3.757143 -0.170545 15.000000
v 3.757143 0.170549 15.000000
v 1.387109 0.170549 15.000000
v 1.190602 0.170549 15.000000
v -1.190602 0.170549 15.000000
v -1.387109 0.170549 15.000000
v -3.757143 0.170549 15.000000
v -4.000000 -0.170549 -11.250000
v -4.000000 -0.170548 -7.500000
v -4.000000 -0.170548 -3.750000
v -4.000000 -0.170547 0.000000
v -4.000000 -0.170546 3.750000
v -4.000000 -0.170546 7.500000
v -4.000000 -0.170545 11.250000
v -4.000000 0.170549 11.250000
v -4.000000 0.170548 7.500000
v -4.000000 0.170548 3.750000
v -4.000000 0.170547 -0.000000
v -4.000000 0.170546 -3.750000
v -4.000000 0.170546 -7.500000
v -4.000000 0.170545 -11.250000
v 4.000000 -0.170545 11.250000
v 4.000000 -0.170546 7.500000
v 4.000000 -0.170546 3.750000
v 4.000000 -0.170547 0.000000
v 4.000000 -0.170548 -3.750000
v 4.000000 -0.170548 -7.500000
v 4.000000 -0.170549 -11.250000
v 4.000000 0.170545 -11.250000
v 4.000000 0.170546 -7.500000
v 4.000000 0.170546 -3.750000
v 4.000000 0.170547 -0.000000
v 4.000000 0.170548 3.750000
v 4.000000 0.170548 7.500000
v 4.000000 0.170549 11.250000
v 3.757143 0.170545 -11.250000
v 3.757143 0.170546 -7.500000
v 3.757143 0.170546 -3.750000
v 3.757143 0.170547 -0.000000
v 3.757143 0.170548 3.750000
v 3.757143 0.170548 7.500000
v 3.757143 0.170549 11.250000
v 1.387109 0.170545 -11.250000
v 1.387109 0.170546 -7.500000
v 1.387109 0.170546 -3.750000
v 1.387109 0.170547 -0.000000
v 1.387109 0.170548 3.750000
v 1.387109 0.170548 7.500000
v 1.387109 0.170549 11.250000
v 1.190602 0.170545 -11.250000
v 1.190602 0.170546 -7.500000
v 1.190602 0.170546 -3.750000
v 1.190602 0.170547 -0.000000
v 1.190602 0.170548 3.750000
v 1.190602 0.170548 7.500000
v 1.190602 0.170549 11.250000
v -1.190602 0.170545 -11.250000
v -1.190602 0.170546 -7.500000
v -1.190602 0.170546 -3.750000
v -1.190602 0.170547 -0.000000
v -1.190602 0.170548 3.750000
v -1.190602 0.170548 7.500000
v -1.190602 0.170549 11.250000
v -1.387109 0.170545 -11.250000
v -1.387109 0.170546 -7.500000
v -1.387109 0.170546 -3.750000
v -1.387109 0.170547 -0.000000
v -1.387109 0.170548 3.750000
v -1.387109 0.170548 7.500000
v -1.387109 0.170549 11.250000
v -3.757143 0.170545 -11.250000
v -3.757143 0.170546 -7.500000
v -3.757143 0.170546 -3.750000
v -3.757143 0.170547 -0.000000
v -3.757143 0.170548 3.750000
v -3.757143 0.170548 7.500000
v -3.757143 0.170549 11.250000
v -3.757143 -0.170549 -11.250000
v -3.757143 -0.170548 -7.500000
v -3.757143 -0.170548 -3.750000
v -3.757143 -0.170547 0.000000
v -3.757143 -0.170546 3.750000
v -3.757143 -0.170546 7.500000
v -3.757143 -0.170545 11.250000
v -1.387109 -0.170549 -11.250000
v -1.387109 -0.170548 -7.500000
v -1.387109 -0.170548 -3.750000
v -1.387109 -0.170547 0.000000
v -1.387109 -0.170546 3.750000
v -1.387109 -0.170546 7.500000
v -1.387109 -0.170545 11.250000
v -1.190602 -0.170549 -11.250000
v -1.190602 -0.170548 -7.500000
v -1.190602 -0.170548 -3.750000
v -1.190602 -0.170547 0.000000
v -1.190602 -0.170546 3.750000
v -1.190602 -0.170546 7.500000
v -1.190602 -0.170545 11.250000
v 1.190602 -0.170549 -11.250000
v 1.190602 -0.170548 -7.500000
v 1.190602 -0.170548 -3.750000
v 1.190602 -0.170547 0.000000
v 1.190602 -0.170546 3.750000
v 1.190602 -0.170546 7.500000
v 1.190602 -0.170545 11.250000
v 1.387109 -0.170549 -11.250000
v 1.387109 -0.170548 -7.500000
v 1.387109 -0.170548 -3.750000
v 1.387109 -0.170547 0.000000
v 1.387109 -0.170546 3.750000
v 1.387109 -0.170546 7.500000
v 1.387109 -0.170545 11.250000
v 3.757143 -0.170549 -11.250000
v 3.757143 -0.170548 -7.500000
v 3.757143 -0.170548 -3.750000
v 3.757143 -0.170547 0.000000
v 3.757143 -0.170546 3.750000
v 3.757143 -0.170546 7.500000
v 3.757143 -0.170545 11.250000
vt 0.375000 0.218750
vt 0.625000 0.218750
vt 0.625000 0.250000
vt 0.375000 0.250000
vt 0.375000 0.464286
vt 0.625000 0.464286
vt 0.625000 0.500000
vt 0.375000 0.500000
vt 0.375000 0.718750
vt 0.625000 0.718750
vt 0.625000 0.750000
vt 0.375000 0.750000
vt 0.375000 0.964286
vt 0.625000 0.964286
vt 0.625000 1.000000
vt 0.375000 1.000000
vt 0.339286 0.718750
vt 0.339286 0.750000
vt 0.125000 0.718750
vt 0.160714 0.718750
vt 0.160714 0.750000
vt 0.125000 0.750000
vt 0.196429 0.718750
vt 0.196429 0.750000
vt 0.232143 0.718750
vt 0.232143 0.750000
vt 0.267857 0.718750
vt 0.267857 0.750000
vt 0.303571 0.718750
vt 0.303571 0.750000
vt 0.625000 0.785714
vt 0.375000 0.785714
vt 0.625000 0.821429
vt 0.375000 0.821429
vt 0.625000 0.857143
vt 0.375000 0.857143
vt 0.625000 0.892857
vt 0.375000 0.892857
vt 0.625000 0.928571
vt 0.375000 0.928571
vt 0.625000 0.285714
vt 0.375000 0.285714
vt 0.625000 0.321429
vt 0.375000 0.321429
vt 0.625000 0.357143
vt 0.375000 0.357143
vt 0.625000 0.392857
vt 0.375000 0.392857
vt 0.625000 0.428571
vt 0.375000 0.428571
vt 0.303571 0.500000
vt 0.339286 0.500000
vt 0.339286 0.531250
vt 0.303571 0.531250
vt 0.339286 0.562500
vt 0.303571 0.562500
vt 0.339286 0.593750
vt 0.303571 0.593750
vt 0.339286 0.625000
vt 0.303571 0.625000
vt 0.339286 0.656250
vt 0.303571 0.656250
vt 0.339286 0.687500
vt 0.303571 0.687500
vt 0.267857 0.500000
vt 0.267857 0.531250
vt 0.267857 0.562500
vt 0.267857 0.593750
vt 0.267857 0.625000
vt 0.267857 0.656250
vt 0.267857 0.687500
vt 0.232143 0.500000
vt 0.232143 0.531250
vt 0.232143 0.562500
vt 0.232143 0.593750
vt 0.232143 0.625000
vt 0.232143 0.656250
vt 0.232143 0.687500
vt 0.196429 0.500000
vt 0.196429 0.531250
vt 0.196429 0.562500
vt 0.196429 0.593750
vt 0.196429 0.625000
vt 0.196429 0.656250
vt 0.196429 0.687500
vt 0.160714 0.500000
vt 0.160714 0.531250
vt 0.160714 0.562500
vt 0.160714 0.593750
vt 0.160714 0.625000
vt 0.160714 0.656250
vt 0.160714 0.687500
vt 0.125000 0.500000
vt 0.125000 0.531250
vt 0.125000 0.562500
vt 0.125000 0.593750
vt 0.125000 0.625000
vt 0.125000 0.656250
vt 0.125000 0.687500
vt 0.375000 0.531250
vt 0.375000 0.562500
vt 0.375000 0.593750
vt 0.375000 0.625000
vt 0.375000 0.656250
vt 0.375000 0.687500
vt 0.625000 0.531250
vt 0.625000 0.562500
vt 0.625000 0.593750
vt 0.625000 0.625000
vt 0.625000 0.656250
vt 0.625000 0.687500
vt 0.375000 0.000000
vt 0.625000 0.000000
vt 0.625000 0.031250
vt 0.375000 0.031250
vt 0.625000 0.062500
vt 0.375000 0.062500
vt 0.625000 0.093750
vt 0.375000 0.093750
vt 0.625000 0.125000
vt 0.375000 0.125000
vt 0.625000 0.156250
vt 0.375000 0.156250
vt 0.625000 0.187500
vt 0.375000 0.187500
vt 0.660714 0.718750
vt 0.696429 0.718750
vt 0.696429 0.750000
vt 0.660714 0.750000
vt 0.732143 0.718750
vt 0.732143 0.750000
vt 0.767857 0.718750
vt 0.767857 0.750000
vt 0.803571 0.718750
vt 0.803571 0.750000
vt 0.839286 0.718750
vt 0.839286 0.750000
vt 0.803571 0.500000
vt 0.839286 0.500000
vt 0.839286 0.531250
vt 0.803571 0.531250
vt 0.839286 0.562500
vt 0.803571 0.562500
vt 0.839286 0.593750
vt 0.803571 0.593750
vt 0.839286 0.625000
vt 0.803571 0.625000
vt 0.839286 0.656250
vt 0.803571 0.656250
vt 0.839286 0.687500
vt 0.803571 0.687500
vt 0.767857 0.531250
vt 0.767857 0.562500
vt 0.767857 0.593750
vt 0.767857 0.625000
vt 0.767857 0.656250
vt 0.767857 0.687500
vt 0.732143 0.500000
vt 0.767857 0.500000
vt 0.732143 0.531250
vt 0.732143 0.562500
vt 0.732143 0.593750
vt 0.732143 0.625000
vt 0.732143 0.656250
vt 0.732143 0.687500
vt 0.696429 0.531250
vt 0.696429 0.562500
vt 0.696428 0.593750
vt 0.696429 0.625000
vt 0.696429 0.656250
vt 0.696429 0.687500
vt 0.660714 0.500000
vt 0.696429 0.500000
vt 0.660714 0.531250
vt 0.660714 0.562500
vt 0.660714 0.593750
vt 0.660714 0.625000
vt 0.660714 0.656250
vt 0.660714 0.687500
vt 0.875000 0.718750
vt 0.875000 0.750000
vt 0.875000 0.500000
vt 0.875000 0.531250
vt 0.875000 0.562500
vt 0.875000 0.593750
vt 0.875000 0.625000
vt 0.875000 0.656250
vt 0.875000 0.687500
vn -1.0000 0.0000 0.0000
vn 0.0000 0.0000 -1.0000
vn 1.0000 0.0000 0.0000
vn 0.0000 0.0000 1.0000
vn 0.0000 -1.0000 0.0000
vn 0.0000 1.0000 -0.0000
usemtl Gray
s 1
f 33/1/1 46/2/1 4/3/1 3/4/1
f 9/5/2 20/6/2 8/7/2 7/8/2
f 47/9/3 60/10/3 6/11/3 5/12/3
f 21/13/4 32/14/4 2/15/4 1/16/4
f 144/17/5 47/9/5 5/12/5 26/18/5
f 39/19/5 109/20/5 21/21/5 1/22/5
f 109/20/5 116/23/5 22/24/5 21/21/5
f 116/23/5 123/25/5 23/26/5 22/24/5
f 123/25/5 130/27/5 24/28/5 23/26/5
f 130/27/5 137/29/5 25/30/5 24/28/5
f 137/29/5 144/17/5 26/18/5 25/30/5
f 5/12/4 6/11/4 27/31/4 26/32/4
f 26/32/4 27/31/4 28/33/4 25/34/4
f 25/34/4 28/33/4 29/35/4 24/36/4
f 24/36/4 29/35/4 30/37/4 23/38/4
f 23/38/4 30/37/4 31/39/4 22/40/4
f 22/40/4 31/39/4 32/14/4 21/13/4
f 3/4/2 4/3/2 15/41/2 14/42/2
f 14/42/2 15/41/2 16/43/2 13/44/2
f 13/44/2 16/43/2 17/45/2 12/46/2
f 12/46/2 17/45/2 18/47/2 11/48/2
f 11/48/2 18/47/2 19/49/2 10/50/2
f 10/50/2 19/49/2 20/6/2 9/5/2
f 10/51/5 9/52/5 138/53/5 131/54/5
f 131/54/5 138/53/5 139/55/5 132/56/5
f 132/56/5 139/55/5 140/57/5 133/58/5
f 133/58/5 140/57/5 141/59/5 134/60/5
f 134/60/5 141/59/5 142/61/5 135/62/5
f 135/62/5 142/61/5 143/63/5 136/64/5
f 136/64/5 143/63/5 144/17/5 137/29/5
f 11/65/5 10/51/5 131/54/5 124/66/5
f 124/66/5 131/54/5 132/56/5 125/67/5
f 125/67/5 132/56/5 133/58/5 126/68/5
f 126/68/5 133/58/5 134/60/5 127/69/5
f 127/69/5 134/60/5 135/62/5 128/70/5
f 128/70/5 135/62/5 136/64/5 129/71/5
f 129/71/5 136/64/5 137/29/5 130/27/5
f 12/72/5 11/65/5 124/66/5 117/73/5
f 117/73/5 124/66/5 125/67/5 118/74/5
f 118/74/5 125/67/5 126/68/5 119/75/5
f 119/75/5 126/68/5 127/69/5 120/76/5
f 120/76/5 127/69/5 128/70/5 121/77/5
f 121/77/5 128/70/5 129/71/5 122/78/5
f 122/78/5 129/71/5 130/27/5 123/25/5
f 13/79/5 12/72/5 117/73/5 110/80/5
f 110/80/5 117/73/5 118/74/5 111/81/5
f 111/81/5 118/74/5 119/75/5 112/82/5
f 112/82/5 119/75/5 120/76/5 113/83/5
f 113/83/5 120/76/5 121/77/5 114/84/5
f 114/84/5 121/77/5 122/78/5 115/85/5
f 115/85/5 122/78/5 123/25/5 116/23/5
f 14/86/5 13/79/5 110/80/5 103/87/5
f 103/87/5 110/80/5 111/81/5 104/88/5
f 104/88/5 111/81/5 112/82/5 105/89/5
f 105/89/5 112/82/5 113/83/5 106/90/5
f 106/90/5 113/83/5 114/84/5 107/91/5
f 107/91/5 114/84/5 115/85/5 108/92/5
f 108/92/5 115/85/5 116/23/5 109/20/5
f 3/93/5 14/86/5 103/87/5 33/94/5
f 33/94/5 103/87/5 104/88/5 34/95/5
f 34/95/5 104/88/5 105/89/5 35/96/5
f 35/96/5 105/89/5 106/90/5 36/97/5
f 36/97/5 106/90/5 107/91/5 37/98/5
f 37/98/5 107/91/5 108/92/5 38/99/5
f 38/99/5 108/92/5 109/20/5 39/19/5
f 9/52/5 7/8/5 53/100/5 138/53/5
f 138/53/5 53/100/5 52/101/5 139/55/5
f 139/55/5 52/101/5 51/102/5 140/57/5
f 140/57/5 51/102/5 50/103/5 141/59/5
f 141/59/5 50/103/5 49/104/5 142/61/5
f 142/61/5 49/104/5 48/105/5 143/63/5
f 143/63/5 48/105/5 47/9/5 144/17/5
f 7/8/3 8/7/3 54/106/3 53/100/3
f 53/100/3 54/106/3 55/107/3 52/101/3
f 52/101/3 55/107/3 56/108/3 51/102/3
f 51/102/3 56/108/3 57/109/3 50/103/3
f 50/103/3 57/109/3 58/110/3 49/104/3
f 49/104/3 58/110/3 59/111/3 48/105/3
f 48/105/3 59/111/3 60/10/3 47/9/3
f 1/112/1 2/113/1 40/114/1 39/115/1
f 39/115/1 40/114/1 41/116/1 38/117/1
f 38/117/1 41/116/1 42/118/1 37/119/1
f 37/119/1 42/118/1 43/120/1 36/121/1
f 36/121/1 43/120/1 44/122/1 35/123/1
f 35/123/1 44/122/1 45/124/1 34/125/1
f 34/125/1 45/124/1 46/2/1 33/1/1
usemtl Black
f 67/126/6 74/127/6 28/128/6 27/129/6
f 74/127/6 81/130/6 29/131/6 28/128/6
f 81/130/6 88/132/6 30/133/6 29/131/6
f 88/132/6 95/134/6 31/135/6 30/133/6
f 95/134/6 102/136/6 32/137/6 31/135/6
f 16/138/6 15/139/6 96/140/6 89/141/6
f 89/141/6 96/140/6 97/142/6 90/143/6
f 90/143/6 97/142/6 98/144/6 91/145/6
f 91/145/6 98/144/6 99/146/6 92/147/6
f 92/147/6 99/146/6 100/148/6 93/149/6
f 93/149/6 100/148/6 101/150/6 94/151/6
f 94/151/6 101/150/6 102/136/6 95/134/6
f 82/152/6 89/141/6 90/143/6 83/153/6
f 84/154/6 91/145/6 92/147/6 85/155/6
f 86/156/6 93/149/6 94/151/6 87/157/6
f 18/158/6 17/159/6 82/152/6 75/160/6
f 75/160/6 82/152/6 83/153/6 76/161/6
f 76/161/6 83/153/6 84/154/6 77/162/6
f 77/162/6 84/154/6 85/155/6 78/163/6
f 78/163/6 85/155/6 86/156/6 79/164/6
f 79/164/6 86/156/6 87/157/6 80/165/6
f 80/165/6 87/157/6 88/132/6 81/130/6
f 68/166/6 75/160/6 76/161/6 69/167/6
f 70/168/6 77/162/6 78/163/6 71/169/6
f 72/170/6 79/164/6 80/165/6 73/171/6
f 20/172/6 19/173/6 68/166/6 61/174/6
f 61/174/6 68/166/6 69/167/6 62/175/6
f 62/175/6 69/167/6 70/168/6 63/176/6
f 63/176/6 70/168/6 71/169/6 64/177/6
f 64/177/6 71/169/6 72/170/6 65/178/6
f 65/178/6 72/170/6 73/171/6 66/179/6
f 66/179/6 73/171/6 74/127/6 67/126/6
usemtl Blue
f 102/136/6 40/180/6 2/181/6 32/137/6
f 60/10/6 67/126/6 27/129/6 6/11/6
f 8/7/6 20/172/6 61/174/6 54/106/6
f 54/106/6 61/174/6 62/175/6 55/107/6
f 55/107/6 62/175/6 63/176/6 56/108/6
f 56/108/6 63/176/6 64/177/6 57/109/6
f 57/109/6 64/177/6 65/178/6 58/110/6
f 58/110/6 65/178/6 66/179/6 59/111/6
f 59/111/6 66/179/6 67/126/6 60/10/6
f 15/139/6 4/182/6 46/183/6 96/140/6
f 96/140/6 46/183/6 45/184/6 97/142/6
f 97/142/6 45/184/6 44/185/6 98/144/6
f 98/144/6 44/185/6 43/186/6 99/146/6
f 99/146/6 43/186/6 42/187/6 100/148/6
f 100/148/6 42/187/6 41/188/6 101/150/6
f 101/150/6 41/188/6 40/180/6 102/136/6
usemtl Turquoise
f 17/159/6 16/138/6 89/141/6 82/152/6
f 83/153/6 90/143/6 91/145/6 84/154/6
f 85/155/6 92/147/6 93/149/6 86/156/6
f 87/157/6 94/151/6 95/134/6 88/132/6
f 19/173/6 18/158/6 75/160/6 68/166/6
f 69/167/6 76/161/6 77/162/6 70/168/6
f 71/169/6 78/163/6 79/164/6 72/170/6
f 73/171/6 80/165/6 81/130/6 74/127/6
